<svg width="137" height="40" viewBox="0 0 137 40" fill="none" xmlns="http://www.w3.org/2000/svg">
<g clip-path="url(#clip0_3943_2360)">
<path d="M18.038 3.59991V14.1091H6.96882V3.59991H0V32.2307H6.96882V20.7772H18.038V32.2307H24.966V3.59991H18.038Z" fill="#091216"/>
<path d="M42.7563 10.1024L37.992 22.6803L33.2452 10.1024H26.1541L34.6168 30.3508L34.2295 31.208C33.9004 31.9721 33.5131 32.5503 33.0617 32.9454C32.6103 33.3406 32.0162 33.5382 31.2795 33.5382C30.7873 33.5382 30.2806 33.4626 29.7622 33.3144C29.2439 33.1634 28.6818 32.9513 28.0819 32.681L26.1133 38.9802C26.7423 39.2533 27.4937 39.4915 28.3673 39.6949C29.241 39.8983 30.1437 40.0029 31.0727 40.0029C33.4228 40.0029 35.307 39.4218 36.731 38.2654C38.1522 37.1061 39.285 35.4907 40.1325 33.419L49.8474 10.1053H42.7563V10.1024Z" fill="#091216"/>
<path d="M73.325 15.3381C72.3814 13.5948 71.0971 12.2089 69.4722 11.1862C67.8443 10.1634 66.0475 9.65207 64.0817 9.65207C62.116 9.65207 60.4677 10.0676 59.0612 10.8985C58.237 11.3867 57.5206 11.9997 56.9091 12.7348V10.1024H51.0469V39.5497H57.6458V30.409C57.675 30.4351 57.6983 30.4642 57.7274 30.4903C58.5486 31.2138 59.498 31.7571 60.5784 32.1261C61.6588 32.4951 62.8266 32.6781 64.0846 32.6781C66.0795 32.6781 67.8909 32.1668 69.5158 31.144C71.1408 30.1213 72.4193 28.7296 73.3483 26.9717C74.2772 25.2139 74.7432 23.2701 74.7432 21.1433C74.7432 19.0165 74.2714 17.0814 73.3279 15.3352L73.325 15.3381ZM67.3812 23.8251C66.9298 24.6299 66.3066 25.2575 65.5145 25.7079C64.7224 26.1582 63.8488 26.3819 62.8907 26.3819C61.8801 26.3819 60.9774 26.164 60.1853 25.7282C59.3931 25.2924 58.7699 24.6706 58.3215 23.8687C57.8701 23.0639 57.6458 22.1573 57.6458 21.1491C57.6458 20.1409 57.873 19.2809 58.3215 18.4906C58.7729 17.7003 59.3931 17.0785 60.1853 16.6311C60.9774 16.1807 61.8801 15.957 62.8907 15.957C63.8459 15.957 64.7224 16.1894 65.5145 16.6514C66.3066 17.1163 66.9298 17.7497 67.3812 18.5516C67.8326 19.3564 68.0568 20.2223 68.0568 21.1491C68.0568 22.1312 67.8326 23.0232 67.3812 23.828V23.8251Z" fill="#091216"/>
<path d="M116.035 1.47309C114.599 0.491029 112.94 0 111.055 0C109.524 0 108.082 0.328321 106.731 0.982059C105.377 1.6358 104.279 2.63238 103.431 3.96891C102.584 5.30544 102.162 6.95576 102.162 8.91698V10.1024H98.8359V15.7478H102.162V32.2307H108.761V15.7478H112.145V10.1024H108.761V8.91698C108.761 7.90877 108.979 7.15043 109.416 6.64778C109.853 6.14222 110.386 5.89235 111.015 5.89235C111.533 5.89235 111.944 6.06378 112.244 6.40372C112.544 6.74366 112.75 7.24341 112.858 7.89715L119.049 5.85167C118.476 3.91661 117.471 2.45805 116.035 1.47599V1.47309Z" fill="#091216"/>
<path d="M129.909 10.1024L125.144 22.6803L120.398 10.1024H113.306L121.769 30.3508L121.382 31.208C121.053 31.9721 120.665 32.5503 120.214 32.9454C119.763 33.3406 119.169 33.5382 118.432 33.5382C117.94 33.5382 117.433 33.4626 116.915 33.3144C116.396 33.1634 115.834 32.9513 115.234 32.681L113.266 38.9802C113.895 39.2533 114.646 39.4915 115.52 39.6949C116.393 39.8983 117.296 40.0029 118.225 40.0029C120.575 40.0029 122.459 39.4218 123.883 38.2654C125.305 37.1061 126.437 35.4907 127.285 33.419L137 10.1053H129.909V10.1024Z" fill="#091216"/>
<path d="M98.1834 20.2281C98.1834 18.264 97.7058 16.48 96.7477 14.8704C95.7896 13.2607 94.4792 11.9997 92.8134 11.0874C91.1447 10.1751 89.2722 9.7189 87.1958 9.7189C85.1195 9.7189 83.1858 10.2157 81.4763 11.2123C79.7669 12.2089 78.4156 13.5774 77.4168 15.3236C76.4179 17.0698 75.9199 19.0456 75.9199 21.2537C75.9199 23.4619 76.4121 25.4725 77.3964 27.2042C78.3807 28.9359 79.7669 30.2869 81.5579 31.2545C83.3489 32.222 85.4165 32.7072 87.7695 32.7072C90.638 32.7072 92.9823 32.0186 94.7995 30.6414C95.3907 30.194 95.9061 29.6855 96.3604 29.1276L90.8652 25.7108C90.6846 25.9316 90.4633 26.1292 90.207 26.3064C89.511 26.7829 88.6141 27.0211 87.522 27.0211C86.4299 27.0211 85.4369 26.7829 84.6331 26.3064C83.8265 25.8299 83.2178 25.1355 82.8101 24.2202C82.6179 23.7902 82.4723 23.3195 82.3704 22.8082H97.9796C98.1165 21.8813 98.1834 21.0213 98.1834 20.231V20.2281ZM82.6441 18.1419C82.6907 18.0228 82.7373 17.9066 82.7897 17.7933C83.1858 16.9333 83.7536 16.2737 84.4904 15.8088C85.2272 15.3469 86.1154 15.1144 87.1551 15.1144C87.921 15.1144 88.6024 15.251 89.2052 15.5241C89.8051 15.7972 90.2915 16.1517 90.6613 16.5875C91.0312 17.0233 91.2292 17.5434 91.2554 18.1419H82.6441Z" fill="#091216"/>
</g>
<defs>
<clipPath id="clip0_3943_2360">
<rect width="137" height="40" fill="white"/>
</clipPath>
</defs>
</svg>
