<svg width="18" height="18" viewBox="0 0 18 18" fill="none" xmlns="http://www.w3.org/2000/svg">
<g clip-path="url(#clip0_3842_224)">
<path d="M18 9.08984C18 4.13984 13.95 0.0898438 9 0.0898438C4.05 0.0898438 0 4.04984 0 9.08984C0 13.5898 3.33 17.2798 7.56 17.9998V11.6998H5.31V9.08984H7.56V7.10984C7.56 4.85984 8.91 3.59984 10.98 3.59984C11.97 3.59984 12.96 3.77984 12.96 3.77984V6.02984H11.79C10.71 6.02984 10.35 6.74984 10.35 7.46984V9.17984H12.87L12.51 11.6998H10.44V17.9998C14.67 17.2798 18 13.5898 18 9.08984Z" fill="black"/>
</g>
<defs>
<clipPath id="clip0_3842_224">
<rect width="18" height="18" fill="white"/>
</clipPath>
</defs>
</svg>
