<svg width="24" height="24" viewBox="0 0 24 24" fill="none" xmlns="http://www.w3.org/2000/svg">
<path fill-rule="evenodd" clip-rule="evenodd" d="M20.5281 6.08945C20.7952 6.79822 20.937 7.54807 20.9471 8.30545C21.0028 9.25803 21.0031 9.56956 21.005 11.9808L21.0051 12.0144C21.0051 14.4574 20.9921 14.7624 20.9491 15.7244C20.9341 16.4734 20.7931 17.2114 20.5301 17.9114C20.2982 18.5091 19.9442 19.052 19.4909 19.5053C19.0376 19.9586 18.4948 20.3125 17.8971 20.5444C17.1974 20.807 16.4582 20.9487 15.7111 20.9634C14.7561 21.0194 14.4431 21.0194 12.0011 21.0194C9.55907 21.0194 9.25407 21.0064 8.29107 20.9634C7.54244 20.9388 6.8035 20.7866 6.10607 20.5134C5.50813 20.282 4.96505 19.9284 4.51151 19.4752C4.05797 19.022 3.70395 18.4792 3.47207 17.8814C3.20907 17.1804 3.06807 16.4424 3.05307 15.6944C2.99707 14.7384 2.99707 14.4264 2.99707 11.9844C2.99707 9.54245 3.01007 9.23745 3.05307 8.27445C3.06719 7.52756 3.2089 6.78858 3.47207 6.08945C3.70356 5.4915 4.05732 4.94847 4.5107 4.49508C4.96409 4.04169 5.50713 3.68793 6.10507 3.45645C6.80442 3.19391 7.54323 3.0519 8.29007 3.03645C9.24507 2.98145 9.55807 2.98145 12.0001 2.98145C14.4421 2.98145 14.7471 2.99345 15.7091 3.03645C16.4562 3.05179 17.1954 3.1938 17.8951 3.45645C18.4929 3.6881 19.0359 4.04191 19.4892 4.49528C19.9426 4.94863 20.2964 5.4916 20.5281 6.08945ZM7.37107 11.9794C7.37107 14.5334 9.44007 16.6024 11.9941 16.6024C13.2202 16.6024 14.396 16.1154 15.263 15.2484C16.13 14.3814 16.6171 13.2055 16.6171 11.9794C16.6171 10.7533 16.13 9.57747 15.263 8.71049C14.396 7.84351 13.2202 7.35645 11.9941 7.35645C9.44007 7.35645 7.37107 9.42544 7.37107 11.9794ZM15.7231 7.18545C15.7231 7.78145 16.2041 8.26344 16.8011 8.26344C17.3961 8.26344 17.8781 7.78145 17.8781 7.18545C17.8781 7.04395 17.8502 6.90383 17.7961 6.7731C17.7419 6.64238 17.6625 6.52359 17.5625 6.42354C17.4624 6.32348 17.3436 6.24411 17.2129 6.18997C17.0822 6.13582 16.9421 6.10795 16.8006 6.10795C16.6591 6.10795 16.519 6.13582 16.3882 6.18997C16.2575 6.24411 16.1387 6.32348 16.0387 6.42354C15.9386 6.52359 15.8592 6.64238 15.8051 6.7731C15.7509 6.90383 15.7231 7.04395 15.7231 7.18545ZM14.9971 11.9794C14.9971 13.638 13.6526 14.9824 11.9941 14.9824C10.3356 14.9824 8.99107 13.638 8.99107 11.9794C8.99107 10.3209 10.3356 8.97644 11.9941 8.97644C13.6526 8.97644 14.9971 10.3209 14.9971 11.9794Z" fill="black"/>
</svg>
