<svg width="16" height="16" viewBox="0 0 16 16" fill="none" xmlns="http://www.w3.org/2000/svg">
<g clip-path="url(#clip0_3842_236)">
<path d="M14.5601 3.6C12.7201 3.44 11.2801 2.08 11.0401 0.24V0H8.32012V11.04C8.32012 12.16 7.36012 13.12 6.08012 13.12C4.96012 13.12 4.00012 12.24 4.00012 11.04C4.00012 9.84 4.88012 8.96 6.08012 8.96H6.24012L6.64012 9.04V6H6.08012C3.36012 6 1.12012 8.24 1.12012 10.96C1.12012 13.68 3.36012 16 6.16012 16C8.96012 16 11.1201 13.76 11.1201 11.04V5.44C12.0001 6.32 13.0401 6.72 14.2401 6.72H14.8801V3.68L14.5601 3.6Z" fill="black"/>
</g>
<defs>
<clipPath id="clip0_3842_236">
<rect width="16" height="16" fill="white"/>
</clipPath>
</defs>
</svg>
